<?xml version="1.0" encoding="iso-8859-1"?>
<!-- Generator: Adobe Illustrator 19.0.0, SVG Export Plug-In . SVG Version: 6.00 Build 0)  -->
<svg version="1.1" id="Capa_1" xmlns="http://www.w3.org/2000/svg" xmlns:xlink="http://www.w3.org/1999/xlink" x="0px" y="0px"
	 viewBox="0 0 512 512" style="enable-background:new 0 0 512 512;" xml:space="preserve">
<polygon style="fill:#FDBD40;" points="394.847,407.864 394.847,373.153 394.847,355.797 117.153,355.797 117.153,373.153 
	117.153,407.864 117.153,425.22 394.847,425.22 "/>
<path style="fill:#36AFAD;" d="M394.847,234.305c0-19.17-15.542-34.712-34.712-34.712v52.068H342.78v-52.068H169.22v52.068h-17.356
	v-52.068c-19.17,0-34.712,15.542-34.712,34.712v121.492h277.695V234.305z M256,295.051c-19.17,0-34.712-15.542-34.712-34.712
	S236.83,225.627,256,225.627s34.712,15.542,34.712,34.712S275.17,295.051,256,295.051z"/>
<g>
	<rect x="386.169" y="442.576" style="fill:#FDBD40;" width="8.678" height="17.356"/>
	<rect x="351.458" y="442.576" style="fill:#FDBD40;" width="17.356" height="17.356"/>
	<rect x="316.746" y="442.576" style="fill:#FDBD40;" width="17.356" height="17.356"/>
	<rect x="282.034" y="442.576" style="fill:#FDBD40;" width="17.356" height="17.356"/>
	<circle style="fill:#FDBD40;" cx="256" cy="260.339" r="17.356"/>
	<rect x="247.322" y="442.576" style="fill:#FDBD40;" width="17.356" height="17.356"/>
</g>
<path style="fill:#195C85;" d="M256,225.627c-19.17,0-34.712,15.542-34.712,34.712S236.83,295.051,256,295.051
	s34.712-15.542,34.712-34.712S275.17,225.627,256,225.627z M256,277.695c-9.589,0-17.356-7.767-17.356-17.356
	c0-9.589,7.767-17.356,17.356-17.356s17.356,7.767,17.356,17.356C273.33,269.911,265.572,277.669,256,277.695z"/>
<g>
	<rect x="212.61" y="442.576" style="fill:#FDBD40;" width="17.356" height="17.356"/>
	<rect x="177.898" y="442.576" style="fill:#FDBD40;" width="17.356" height="17.356"/>
	<path style="fill:#FDBD40;" d="M169.22,251.661V104.136c0-47.928,38.851-86.78,86.78-86.78s86.78,38.851,86.78,86.78v147.525
		h17.356V104.136C360.136,46.627,313.509,0,256,0S151.864,46.627,151.864,104.136v147.525H169.22z"/>
	<rect x="143.186" y="442.576" style="fill:#FDBD40;" width="17.356" height="17.356"/>
	<rect x="117.153" y="442.576" style="fill:#FDBD40;" width="8.678" height="17.356"/>
</g>
<path style="fill:#36AFAD;" d="M151.864,512h208.271c19.17,0,34.712-15.542,34.712-34.712v-17.356h-8.678v-17.356h8.678V425.22
	H117.153v17.356h8.678v17.356h-8.678v17.356C117.153,496.458,132.695,512,151.864,512z M351.458,442.576h17.356v17.356h-17.356
	V442.576z M316.746,442.576h17.356v17.356h-17.356V442.576z M282.034,442.576h17.356v17.356h-17.356V442.576z M247.322,442.576
	h17.356v17.356h-17.356V442.576z M212.61,442.576h17.356v17.356H212.61V442.576z M177.898,442.576h17.356v17.356h-17.356V442.576z
	 M143.186,442.576h17.356v17.356h-17.356V442.576z"/>
<g>
</g>
<g>
</g>
<g>
</g>
<g>
</g>
<g>
</g>
<g>
</g>
<g>
</g>
<g>
</g>
<g>
</g>
<g>
</g>
<g>
</g>
<g>
</g>
<g>
</g>
<g>
</g>
<g>
</g>
</svg>
