<?xml version="1.0" encoding="iso-8859-1"?>
<!-- Generator: Adobe Illustrator 19.0.0, SVG Export Plug-In . SVG Version: 6.00 Build 0)  -->
<svg version="1.1" id="Capa_1" xmlns="http://www.w3.org/2000/svg" xmlns:xlink="http://www.w3.org/1999/xlink" x="0px" y="0px"
	 viewBox="0 0 477.88 477.88" style="enable-background:new 0 0 477.88 477.88;" xml:space="preserve">
<g>
	<g>
		<path d="M238.94,85.333c-47.128,0-85.333,38.205-85.333,85.333c0,9.426,7.641,17.067,17.067,17.067s17.067-7.641,17.067-17.067
			c0-28.277,22.923-51.2,51.2-51.2s51.2,22.923,51.2,51.2c0,9.426,7.641,17.067,17.067,17.067s17.067-7.641,17.067-17.067
			C324.273,123.538,286.068,85.333,238.94,85.333z"/>
	</g>
</g>
<g>
	<g>
		<path d="M318.887,380.467c-6.614-6.387-17.099-6.387-23.712,0l-39.168,39.134V187.733c0-9.426-7.641-17.067-17.067-17.067
			s-17.067,7.641-17.067,17.067v231.868l-39.134-39.134c-6.665-6.663-17.468-6.663-24.132,0c-6.663,6.664-6.663,17.468,0,24.132
			l68.267,68.267c6.656,6.673,17.463,6.687,24.136,0.031c0.01-0.01,0.02-0.02,0.031-0.031l68.267-68.267
			C325.855,397.82,325.667,387.015,318.887,380.467z"/>
	</g>
</g>
<g>
	<g>
		<path d="M460.807,0H17.073C7.648,0,0.007,7.641,0.007,17.067v307.2c0,9.426,7.641,17.067,17.067,17.067h153.6
			c9.426,0,17.067-7.641,17.067-17.067c0-9.426-7.641-17.067-17.067-17.067h-52.736c-7.328-42.88-40.917-76.469-83.797-83.797
			V117.931c42.88-7.328,76.469-40.917,83.797-83.797h242.005c7.328,42.88,40.917,76.469,83.797,83.797v105.472
			c-42.88,7.328-76.469,40.917-83.797,83.797h-52.736c-9.426,0-17.067,7.641-17.067,17.067c0,9.426,7.641,17.067,17.067,17.067
			h153.6c9.426,0,17.067-7.641,17.067-17.067v-307.2C477.873,7.641,470.232,0,460.807,0z M82.917,307.2H34.14v-48.776
			C58.039,264.639,76.701,283.302,82.917,307.2z M34.14,82.91V34.133h48.777C76.672,58.015,58.022,76.665,34.14,82.91z
			 M443.74,307.2h-48.777c6.215-23.898,24.878-42.561,48.777-48.776V307.2z M443.74,82.91
			c-23.882-6.245-42.532-24.895-48.777-48.777h48.777V82.91z"/>
	</g>
</g>
<g>
</g>
<g>
</g>
<g>
</g>
<g>
</g>
<g>
</g>
<g>
</g>
<g>
</g>
<g>
</g>
<g>
</g>
<g>
</g>
<g>
</g>
<g>
</g>
<g>
</g>
<g>
</g>
<g>
</g>
</svg>
