<?xml version="1.0" encoding="iso-8859-1"?>
<!-- Generator: Adobe Illustrator 19.0.0, SVG Export Plug-In . SVG Version: 6.00 Build 0)  -->
<svg version="1.1" id="Capa_1" xmlns="http://www.w3.org/2000/svg" xmlns:xlink="http://www.w3.org/1999/xlink" x="0px" y="0px"
	 viewBox="0 0 477.867 477.867" style="enable-background:new 0 0 477.867 477.867;" xml:space="preserve">
<g>
	<g>
		<path d="M307.2,290.132c-9.426,0-17.067,7.641-17.067,17.067c0,28.277-22.923,51.2-51.2,51.2s-51.2-22.923-51.2-51.2
			c0-9.426-7.641-17.067-17.067-17.067s-17.067,7.641-17.067,17.067c0,47.128,38.205,85.333,85.333,85.333
			s85.333-38.205,85.333-85.333C324.267,297.773,316.626,290.132,307.2,290.132z"/>
	</g>
</g>
<g>
	<g>
		<path d="M319.266,73.265L250.999,4.999c-6.665-6.663-17.468-6.663-24.132,0l-68.267,68.267c-6.548,6.78-6.36,17.584,0.42,24.132
			c6.614,6.388,17.099,6.388,23.713,0l39.134-39.134v231.868c0,9.426,7.641,17.067,17.067,17.067S256,299.557,256,290.132V58.264
			l39.134,39.134c3.2,3.201,7.54,5,12.066,5.001c9.426-0.002,17.065-7.645,17.063-17.07
			C324.262,80.804,322.465,76.465,319.266,73.265z"/>
	</g>
</g>
<g>
	<g>
		<path d="M460.8,136.532H307.2c-9.426,0-17.067,7.641-17.067,17.067s7.641,17.067,17.067,17.067h52.736
			c7.328,42.88,40.917,76.469,83.797,83.797v105.472c-42.88,7.328-76.469,40.917-83.797,83.797H117.931
			c-7.328-42.88-40.917-76.469-83.797-83.797V254.462c42.88-7.329,76.469-40.917,83.797-83.797h52.736
			c9.426,0,17.067-7.641,17.067-17.067s-7.641-17.067-17.067-17.067h-153.6C7.641,136.532,0,144.173,0,153.598v307.2
			c0,9.426,7.641,17.067,17.067,17.067H460.8c9.426,0,17.067-7.641,17.067-17.067v-307.2
			C477.867,144.173,470.226,136.532,460.8,136.532z M34.133,170.665H82.91c-6.245,23.882-24.895,42.532-48.777,48.777V170.665z
			 M34.133,443.732v-48.777c23.882,6.245,42.532,24.895,48.777,48.777H34.133z M443.733,443.732h-48.777
			c6.245-23.882,24.895-42.532,48.777-48.777V443.732z M443.733,219.441c-23.882-6.245-42.532-24.895-48.777-48.777h48.777V219.441z
			"/>
	</g>
</g>
<g>
</g>
<g>
</g>
<g>
</g>
<g>
</g>
<g>
</g>
<g>
</g>
<g>
</g>
<g>
</g>
<g>
</g>
<g>
</g>
<g>
</g>
<g>
</g>
<g>
</g>
<g>
</g>
<g>
</g>
</svg>
