<svg xmlns="http://www.w3.org/2000/svg" viewBox="0 0 1024.01 1333.33" shape-rendering="geometricPrecision" text-rendering="geometricPrecision" image-rendering="optimizeQuality" fill-rule="evenodd" clip-rule="evenodd"><path d="M94.84 496.2h31.21v-94.84c0-110.04 43.22-210.08 112.85-282.91C308.92 45.22 405.76.01 512.21.01c106.44 0 203.28 45.22 273.31 118.44 69.63 72.83 112.84 172.87 112.84 282.91v94.84h31.21c26.01 0 49.62 10.81 66.83 27.61 17.2 17.2 27.61 40.81 27.61 66.82v648.26c0 26.01-10.8 49.62-27.61 66.83-17.21 17.2-40.82 27.61-66.83 27.61H94.44c-26.01 0-49.62-10.8-66.83-27.61C10.41 1288.51 0 1264.9 0 1238.89V590.63c0-26.01 10.8-49.62 27.61-66.82 17.21-17.21 40.82-27.61 66.83-27.61h.4zm376.27 491.41c0-25.51 2.69-45.81 7.95-60.8 5.37-15.08 14.91-29.42 28.72-43.11 14.61-15.08 24.25-27.56 29.12-37.24 4.87-9.68 7.26-19.46 7.26-29.33 0-30.44-10.44-45.71-31.41-45.71-9.34 0-17.1 4.19-23.36 12.57-6.16 8.38-9.44 19.74-9.84 33.89h-82.39c.39-35.29 10.93-62.66 31.61-82.12 20.67-19.46 48.6-29.14 83.98-29.14 36.08 0 64.11 9.41 84.19 28.3 19.97 18.81 29.91 45.25 29.91 79.14 0 28.03-12.32 55.59-36.97 82.49l-24.15 25.7c-7.95 8.94-13.61 18.25-16.89 27.74-3.28 9.59-5.17 22.16-5.57 37.61h-72.16zm-7.55 83.24c0-12.29 4.17-22.44 12.62-30.17 8.44-7.82 19.18-11.73 32.2-11.73 13.42 0 24.25 3.91 32.6 11.82 8.35 7.91 12.52 17.88 12.52 30.07 0 12.01-4.07 21.97-12.22 29.89-8.15 8-19.08 12.01-32.9 12.01-13.62 0-24.45-4-32.6-12.01-8.15-7.91-12.22-17.88-12.22-29.89zM192.88 496.2h639.06v-94.84c0-92.43-36.02-176.07-94.44-236.89-58.02-60.42-137.65-98.04-225.29-98.04-87.63 0-167.27 37.61-225.29 98.04-58.02 60.82-94.44 144.46-94.44 236.89v94.84h.4zm737.09 66.43H94.84c-7.6 0-14.81 3.2-19.61 8.4-5.2 5.2-8.4 12-8.4 19.61v648.26c0 7.61 3.2 14.81 8.4 19.61 5.2 5.2 12.01 8.4 19.61 8.4h835.13c7.6 0 14.8-3.2 19.61-8.4 5.2-5.2 8.41-12 8.41-19.61V590.64c0-7.6-3.2-14.81-8.41-19.61-5.2-5.2-12-8.4-19.61-8.4z" fill-rule="nonzero"/></svg>